# xmcd CD database file
# Copyright (C) 1993-1998 Ti Kan
#
# Track frame offsets:
#  225
#  20563
#  39458
#  57479
#  73353
#  92333
#  110018
#  126166
#  145088
#  166419
#
# Disc length: 2454 seconds
#
# Revision: 1
# Processed by: cddbd v1.4b41PL1 Copyright (c) Steve Scherf et al.
# Submitted via: CDWizzard Release:4.35
#
DISCID=8f09930a
DTITLE=The Guess Who - Lonely One
DYEAR=1900
DGENRE=
TTITLE0=Lonely One
TTITLE1=Love's All That Matters Tonight
TTITLE2=Sweet Liberty
TTITLE3=Haunted Heart
TTITLE4=Anything For Love
TTITLE5=Still Feels Like Love
TTITLE6=The Razor's Edge
TTITLE7=I Feel Your Pain
TTITLE8=Amy
TTITLE9=Rock N' Roll Classic
EXTD=
EXTT0=
EXTT1=
EXTT2=
EXTT3=
EXTT4=
EXTT5=
EXTT6=
EXTT7=
EXTT8=
EXTT9=
PLAYORDER=
